<svg width="44" height="44" viewBox="0 0 44 44" fill="none" xmlns="http://www.w3.org/2000/svg">
<path d="M40.75 20.7414V18.9132C40.7472 16.2249 40.1659 13.5686 39.0456 11.1247C37.9254 8.68088 36.2923 6.50672 34.2574 4.74987C32.2225 2.99302 29.8334 1.69462 27.2523 0.942847C24.6711 0.191069 21.9585 0.00351472 19.2984 0.392918C14.7881 1.10905 10.6856 3.42293 7.73941 6.91236C4.79326 10.4018 3.19988 14.8342 3.25 19.4007V20.7414C2.33921 21.0634 1.55014 21.6589 0.990762 22.4465C0.431381 23.2341 0.129005 24.1753 0.125 25.1414V32.9382C0.125 34.1814 0.61886 35.3737 1.49794 36.2528C2.37701 37.1319 3.5693 37.6257 4.8125 37.6257C6.0557 37.6257 7.24799 37.1319 8.12706 36.2528C9.00614 35.3737 9.5 34.1814 9.5 32.9382V25.1414C9.496 24.1753 9.19362 23.2341 8.63424 22.4465C8.07486 21.6589 7.28579 21.0634 6.375 20.7414V19.4007C6.32218 15.5874 7.6419 11.8821 10.0935 8.96068C12.545 6.03929 15.965 4.0965 19.7297 3.48667C22.1402 3.13327 24.5999 3.34759 26.913 4.11256C29.2261 4.87752 31.3286 6.17201 33.0531 7.89292C34.5068 9.33569 35.6595 11.0528 36.4443 12.9446C37.2291 14.8363 37.6305 16.8651 37.625 18.9132V20.7414C36.7142 21.0634 35.9251 21.6589 35.3658 22.4465C34.8064 23.2341 34.504 24.1753 34.5 25.1414V32.9382C34.5038 33.7754 34.7349 34.5957 35.1688 35.3117C32.0487 38.4047 27.9403 40.3018 23.5625 40.671C23.5519 40.2566 23.3772 39.8634 23.0767 39.5779C22.7762 39.2923 22.3746 39.1378 21.9602 39.1484C21.5458 39.159 21.1525 39.3337 20.867 39.6342C20.5814 39.9347 20.4269 40.3363 20.4375 40.7507V42.2976C20.4375 42.712 20.6021 43.1094 20.8951 43.4025C21.1882 43.6955 21.5856 43.8601 22 43.8601C24.8977 43.857 27.7659 43.2774 30.4374 42.155C33.1089 41.0327 35.5305 39.39 37.5609 37.3226C38.2685 37.5938 39.0317 37.688 39.784 37.5969C40.5363 37.5059 41.2549 37.2323 41.8774 36.8001C42.4998 36.3679 43.0072 35.7901 43.3554 35.117C43.7035 34.444 43.8819 33.696 43.875 32.9382V25.1414C43.871 24.1753 43.5686 23.2341 43.0092 22.4465C42.4499 21.6589 41.6608 21.0634 40.75 20.7414ZM6.375 32.9382C6.375 33.3526 6.21038 33.7501 5.91735 34.0431C5.62433 34.3361 5.2269 34.5007 4.8125 34.5007C4.3981 34.5007 4.00067 34.3361 3.70765 34.0431C3.41462 33.7501 3.25 33.3526 3.25 32.9382V25.1414C3.25 24.727 3.41462 24.3295 3.70765 24.0365C4.00067 23.7435 4.3981 23.5789 4.8125 23.5789C5.2269 23.5789 5.62433 23.7435 5.91735 24.0365C6.21038 24.3295 6.375 24.727 6.375 25.1414V32.9382ZM40.75 32.9382C40.75 33.3526 40.5854 33.7501 40.2924 34.0431C39.9993 34.3361 39.6019 34.5007 39.1875 34.5007C38.7731 34.5007 38.3757 34.3361 38.0826 34.0431C37.7896 33.7501 37.625 33.3526 37.625 32.9382V25.1414C37.625 24.727 37.7896 24.3295 38.0826 24.0365C38.3757 23.7435 38.7731 23.5789 39.1875 23.5789C39.6019 23.5789 39.9993 23.7435 40.2924 24.0365C40.5854 24.3295 40.75 24.727 40.75 25.1414V32.9382Z" fill="url(#paint0_linear_957_32364)"/>
<defs>
<linearGradient id="paint0_linear_957_32364" x1="48.4094" y1="-1.76177" x2="-1.50156" y2="48.1476" gradientUnits="userSpaceOnUse">
<stop stop-color="#FAE27A"/>
<stop offset="1" stop-color="#F3B453"/>
</linearGradient>
</defs>
</svg>
