<svg width="26" height="22" viewBox="0 0 26 22" fill="none" xmlns="http://www.w3.org/2000/svg">
<path d="M25.7999 2.92766C25.7999 2.31074 25.562 1.71909 25.1384 1.28286C24.7147 0.846633 24.1402 0.601563 23.5411 0.601562H2.45877C1.8597 0.601562 1.28516 0.846633 0.861545 1.28286C0.437933 1.71909 0.199951 2.31074 0.199951 2.92766V15.3335C0.199951 15.9505 0.437933 16.5421 0.861545 16.9783C1.28516 17.4146 1.8597 17.6596 2.45877 17.6596H15.2588C15.4384 17.6594 15.6121 17.7258 15.7482 17.8465L19.7764 21.4016V18.435C19.7764 18.2294 19.8557 18.0321 19.997 17.8867C20.1382 17.7413 20.3297 17.6596 20.5294 17.6596H23.5411C24.1402 17.6596 24.7147 17.4146 25.1384 16.9783C25.562 16.5421 25.7999 15.9505 25.7999 15.3335V2.92766ZM13.5345 14.3333C13.4106 14.4634 13.2467 14.5452 13.0708 14.5646C12.8948 14.584 12.7178 14.5399 12.5699 14.4398C12.4221 14.3396 12.3126 14.1897 12.2602 14.0157C12.2078 13.8416 12.2157 13.6543 12.2826 13.4856C12.3495 13.3169 12.4713 13.1773 12.627 13.0908C12.7828 13.0043 12.9629 12.9762 13.1365 13.0114C13.3101 13.0465 13.4665 13.1426 13.579 13.2833C13.6914 13.424 13.7529 13.6006 13.7529 13.7828C13.75 13.9881 13.672 14.1846 13.5345 14.3333ZM13.7604 9.80595L13.7529 11.4567C13.7529 11.6623 13.6736 11.8596 13.5324 12.005C13.3912 12.1504 13.1996 12.2321 13 12.2321C12.8003 12.2321 12.6087 12.1504 12.4675 12.005C12.3263 11.8596 12.247 11.6623 12.247 11.4567V9.76873C12.249 9.42904 12.3621 9.09996 12.5679 8.83453C12.7738 8.56909 13.0604 8.38277 13.3817 8.30561C13.7509 8.20636 14.0698 7.96648 14.2738 7.63443C14.4779 7.30238 14.5519 6.90294 14.481 6.51684C14.423 6.21002 14.2773 5.92802 14.0627 5.70699C13.8481 5.48596 13.5742 5.33597 13.2763 5.27625C13.0586 5.2344 12.8346 5.24252 12.6202 5.30003C12.4059 5.35754 12.2065 5.46303 12.0363 5.60897C11.8661 5.75492 11.7293 5.93773 11.6356 6.14438C11.5418 6.35103 11.4935 6.57642 11.4941 6.8045C11.4941 7.01014 11.4147 7.20736 11.2735 7.35277C11.1323 7.49818 10.9408 7.57987 10.7411 7.57987C10.5414 7.57987 10.3499 7.49818 10.2087 7.35277C10.0675 7.20736 9.98819 7.01014 9.98819 6.8045C9.98831 6.22482 10.1462 5.65678 10.4439 5.16482C10.7416 4.67286 11.1673 4.27666 11.6726 4.02118C12.1779 3.7657 12.7426 3.66115 13.3026 3.71941C13.8627 3.77766 14.3957 3.99639 14.8411 4.35076C15.2866 4.70514 15.6267 5.18098 15.8229 5.72432C16.0191 6.26766 16.0635 6.85673 15.951 7.42472C15.8386 7.99272 15.5738 8.51689 15.1867 8.93778C14.7997 9.35867 14.3058 9.65943 13.7612 9.80595H13.7604Z" fill="#3B5C61"/>
</svg>
