<svg width="50" height="50" viewBox="0 0 50 50" fill="none" xmlns="http://www.w3.org/2000/svg">
<path d="M35.3178 15.4877L19.9532 9.75859C18.6789 9.28301 17.3177 10.2271 17.3177 11.5886V23.0469C17.3177 24.4101 18.6814 25.3515 19.9532 24.8769L35.3178 19.1477C37.0086 18.5173 37.0076 16.1177 35.3178 15.4877ZM21.2239 20.2341V14.4014L29.0451 17.3177L21.2239 20.2341ZM44.1406 0H5.85938C2.62852 0 0 2.62852 0 5.85938V28.7761C0 32.0069 2.62852 34.6354 5.85938 34.6354H44.1406C47.3715 34.6354 50 32.0069 50 28.7761V5.85938C50 2.62852 47.3715 0 44.1406 0V0ZM46.0938 28.7761C46.0938 29.853 45.2176 30.7292 44.1406 30.7292H5.85938C4.78242 30.7292 3.90625 29.853 3.90625 28.7761V5.85938C3.90625 4.78242 4.78242 3.90625 5.85938 3.90625H44.1406C45.2176 3.90625 46.0938 4.78242 46.0938 5.85938V28.7761ZM44.2058 42.2526H38.137C37.3337 40.0158 35.1922 38.4114 32.6823 38.4114C30.1725 38.4114 28.031 40.0158 27.2275 42.2526H5.79424C4.71553 42.2526 3.84111 43.127 3.84111 44.2058C3.84111 45.2845 4.71553 46.1589 5.79424 46.1589H27.2275C28.031 48.3956 30.1725 50 32.6823 50C35.1922 50 37.3336 48.3956 38.137 46.1589H44.2058C45.2845 46.1589 46.1589 45.2845 46.1589 44.2058C46.1589 43.127 45.2845 42.2526 44.2058 42.2526ZM32.6823 46.0938C31.6412 46.0938 30.7942 45.2468 30.7942 44.2058C30.7942 43.1646 31.6412 42.3177 32.6823 42.3177C33.7233 42.3177 34.5703 43.1646 34.5703 44.2058C34.5703 45.2468 33.7233 46.0938 32.6823 46.0938Z" fill="url(#paint0_linear_957_32362)"/>
<defs>
<linearGradient id="paint0_linear_957_32362" x1="0" y1="25" x2="50" y2="25" gradientUnits="userSpaceOnUse">
<stop stop-color="#FAE37B"/>
<stop offset="1" stop-color="#F3B352"/>
</linearGradient>
</defs>
</svg>
